<svg version="1.1" id="Layer_1" xmlns="http://www.w3.org/2000/svg" xmlns:xlink="http://www.w3.org/1999/xlink" x="0px" y="0px"
	 width="100%" viewBox="0 0 512 512" enable-background="new 0 0 512 512" xml:space="preserve">
<path fill="#FF757C" opacity="1.000000" stroke="none" 
	d="
M1.000000,279.000000 
	C1.000000,264.645782 1.000000,250.291550 1.352813,235.237061 
	C3.930482,220.764862 5.359695,206.804977 8.558516,193.263107 
	C13.946009,170.455704 23.388277,149.160873 34.993767,128.769745 
	C50.044891,102.324570 69.522133,79.589005 92.637886,60.060329 
	C112.327301,43.426296 134.364014,30.372511 158.174866,20.359669 
	C179.028641,11.590322 200.606689,5.635824 223.084381,2.947396 
	C227.076782,2.469887 231.029144,1.657666 235.000000,1.000001 
	C249.354233,1.000000 263.708466,1.000000 278.762939,1.352818 
	C293.235077,3.930466 307.194946,5.359568 320.736755,8.558458 
	C343.544098,13.946102 364.838989,23.388151 385.230164,34.993702 
	C411.675323,50.044895 434.410919,69.522087 453.939606,92.637833 
	C470.573639,112.327263 483.627441,134.363968 493.640350,158.174805 
	C502.409729,179.028595 508.364136,200.606689 511.052612,223.084396 
	C511.530121,227.076797 512.342346,231.029144 513.000000,235.000000 
	C513.000000,249.354233 513.000000,263.708466 512.647156,278.762939 
	C509.507751,295.230499 507.515869,311.191864 503.725433,326.714050 
	C499.378418,344.515564 492.456970,361.520111 482.815430,376.830658 
	C484.091888,354.761566 483.837524,333.260315 479.249573,311.566864 
	C475.119781,288.974396 467.477081,268.051117 456.797882,248.245361 
	C442.202087,221.175812 423.160950,197.767395 398.738892,178.493561 
	C397.601318,177.660751 396.609375,177.077301 395.577209,176.422653 
	C395.536926,176.351471 395.381866,176.403564 395.263977,176.111450 
	C385.126434,169.187454 375.106812,162.555588 365.249542,155.640991 
	C372.291382,149.564377 379.501190,144.113449 385.964508,137.887527 
	C393.603546,130.529129 401.302704,123.036514 407.688812,114.624962 
	C415.268524,104.641266 419.874542,93.238258 417.165405,80.058357 
	C416.112671,74.936661 413.651764,71.274666 408.269684,70.985977 
	C402.695129,70.686951 396.822906,70.155708 391.530121,71.497765 
	C377.199890,75.131355 365.893494,83.992912 356.223511,94.846497 
	C347.361969,104.792702 338.991333,115.175369 330.193848,125.180580 
	C329.096283,126.428810 326.442261,127.467216 324.964355,127.037659 
	C313.784882,123.788376 302.719025,120.148117 291.896545,116.377991 
	C294.192047,113.921280 296.208740,111.716446 298.505188,109.332184 
	C301.833038,106.334251 301.838013,103.820946 298.414124,101.139343 
	C296.102356,99.328758 293.967987,97.184021 292.147339,94.878387 
	C289.170532,91.108643 286.440399,91.003036 283.209534,94.889328 
	C278.881836,100.001244 274.849274,104.980247 270.440308,109.956001 
	C262.319366,107.487518 254.574783,105.022293 247.144592,102.372307 
	C250.071686,99.594162 252.684402,97.000778 255.553299,94.213264 
	C257.005157,92.089409 259.760132,90.538612 257.085266,87.748207 
	C253.336609,83.837631 249.680481,79.838364 245.701309,75.573204 
	C243.494843,77.338989 242.000610,78.534790 240.203720,79.851624 
	C235.552628,85.359062 231.204178,90.745461 226.471115,96.115204 
	C209.759323,91.029732 193.365387,86.161583 177.146576,80.766960 
	C172.426514,79.196991 169.278488,79.753273 166.495132,84.068573 
	C165.312424,85.208908 164.404846,86.223785 163.322983,87.433563 
	C169.550156,91.856445 175.233276,95.866516 180.888870,99.915016 
	C195.296661,110.228676 209.692154,120.559502 223.688721,130.974518 
	C201.558670,134.591415 180.341751,140.172379 160.777710,150.294617 
	C147.319656,157.257690 134.775635,165.987396 121.872025,173.963196 
	C121.920975,173.998932 122.001114,173.908554 121.704926,173.895203 
	C120.972847,174.257202 120.536957,174.632584 119.810318,175.079407 
	C118.641457,175.946106 117.763351,176.741348 116.552948,177.685593 
	C112.374702,181.155914 108.528770,184.477219 104.370987,187.908630 
	C79.482666,210.424072 60.461342,236.855865 48.117855,267.717133 
	C43.043270,280.404663 39.924297,293.874359 35.718132,307.314514 
	C33.922440,320.613770 31.798071,333.550293 30.894732,346.571533 
	C30.186392,356.781891 30.988865,367.097046 30.825817,377.138916 
	C26.921827,369.379242 23.009304,361.974304 19.761164,354.288574 
	C11.173227,333.967987 5.528859,312.829559 2.945449,290.889465 
	C2.476309,286.905182 1.657427,282.962097 1.000000,279.000000 
z"/>
<path fill="#0F7886" opacity="1.000000" stroke="none" 
	d="
M479.288391,311.988342 
	C483.837524,333.260315 484.091888,354.761566 482.798126,377.186646 
	C480.152039,382.923340 477.858978,388.127075 474.626984,392.661621 
	C466.912811,403.484650 459.352722,414.515045 450.616913,424.486115 
	C441.068726,435.384399 430.989746,446.059723 419.844513,455.260376 
	C402.765625,469.359375 384.036652,481.098938 363.607056,490.163239 
	C340.073608,500.604706 315.786652,507.853790 290.242523,510.971619 
	C286.140259,511.472290 282.079803,512.315247 278.000000,513.000000 
	C263.979095,513.000000 249.958206,513.000000 235.287201,512.608398 
	C231.831421,512.121216 228.928268,512.461426 226.236023,511.859131 
	C209.430725,508.099091 192.573486,504.499939 175.942169,500.064850 
	C168.061752,497.963409 160.642914,494.131012 153.351624,490.947418 
	C155.109741,489.783844 156.617340,488.854004 157.931244,487.703033 
	C159.651031,486.196594 160.945663,483.854980 162.906998,483.046906 
	C167.000641,481.360321 167.835922,478.995972 165.994858,475.237640 
	C165.456604,474.138794 165.034348,472.983154 164.256012,471.133850 
	C170.417389,472.856934 172.927811,470.154236 174.207855,465.195984 
	C174.819122,462.828186 176.492615,460.754944 177.345825,458.424133 
	C178.411270,455.513489 179.929581,452.444397 179.817657,449.498260 
	C179.619278,444.276520 182.101242,441.416473 186.556259,440.464020 
	C193.496307,438.980377 196.197128,434.247894 196.873062,428.047455 
	C197.984711,417.849823 198.504745,407.760040 204.737900,398.720215 
	C207.773590,394.317596 205.588593,390.331085 200.509644,387.810364 
	C193.170319,384.167816 185.977600,379.929047 178.235077,377.493896 
	C171.915009,375.506134 169.340546,371.601379 166.941086,366.161682 
	C165.578659,363.072906 162.429916,358.848846 159.786255,358.621796 
	C152.838058,358.024994 148.788773,353.596436 144.140930,349.508148 
	C146.040833,346.689117 147.850525,344.182709 149.836456,341.432190 
	C148.477448,340.469543 147.353027,339.673035 146.193512,338.851715 
	C144.272125,341.152771 142.602936,343.151825 140.544281,345.093109 
	C134.098007,343.934235 127.841637,345.103851 121.872581,341.786591 
	C118.835426,340.098724 112.915558,339.250397 110.699623,343.039886 
	C107.344467,348.777557 103.037308,348.553650 97.597778,348.512939 
	C92.600365,348.475586 90.476089,347.865570 89.746330,342.790314 
	C89.423424,340.544647 89.710854,338.177490 89.957916,335.891052 
	C90.386688,331.923004 88.836655,330.061279 84.745872,329.841705 
	C78.509888,329.507019 78.257599,328.958557 80.164024,322.904633 
	C80.463585,321.953369 80.980309,320.986298 80.959732,320.035980 
	C80.917694,318.093903 80.578545,316.158295 80.361755,314.219971 
	C78.351364,315.215057 75.672325,315.710968 74.475792,317.313629 
	C72.278282,320.257080 70.269058,323.266327 66.246811,322.638092 
	C61.851612,321.951630 59.313290,318.745941 58.454659,314.518188 
	C57.095909,307.827911 58.731159,301.449615 62.319977,295.932617 
	C64.591499,292.440674 68.412460,290.597443 73.145340,291.089539 
	C75.726418,291.357880 78.628197,290.889526 81.045288,289.912323 
	C86.555122,287.684723 93.130936,290.274109 95.090645,295.605011 
	C95.613167,297.026459 97.251472,298.037750 98.377510,299.237335 
	C98.818283,298.961670 99.259056,298.686035 99.699821,298.410370 
	C99.791908,296.967133 100.336563,295.367584 99.900932,294.106659 
	C97.491432,287.132477 102.099762,283.695190 106.651245,280.235229 
	C108.232628,279.033081 110.322296,278.391144 111.649071,276.990601 
	C113.232422,275.319153 114.311668,273.145874 115.483322,271.117249 
	C116.270279,269.754700 116.472382,267.823822 117.571053,266.913635 
	C121.360954,263.774017 125.442101,260.987488 129.382401,258.026672 
	C130.269180,257.360291 131.434708,256.685242 131.789963,255.754044 
	C133.786545,250.520554 138.285522,249.632996 142.988419,248.983215 
	C143.001480,248.998489 143.032028,249.024612 143.171661,249.339783 
	C146.749268,251.236450 154.144196,248.436066 156.495987,244.398651 
	C155.500778,244.465302 154.703232,244.430496 153.943924,244.584396 
	C150.055344,245.372543 148.576691,244.336761 149.820709,240.098602 
	C150.314865,238.415115 149.460205,236.335709 149.318848,235.219711 
	C155.243439,234.192902 161.355942,233.133499 167.746674,232.025894 
	C166.134491,234.543442 164.597733,236.943207 162.646378,239.990356 
	C165.550919,240.758926 167.565689,241.540756 169.638275,241.749863 
	C170.940613,241.881287 173.167007,241.505005 173.491486,240.732086 
	C174.032928,239.442368 173.987106,236.933548 173.121948,236.205658 
	C170.365906,233.886871 171.790817,231.589752 172.067245,228.991943 
	C172.316833,226.646393 172.214417,222.897858 170.829926,222.010468 
	C167.259628,219.722031 165.961655,216.942993 165.726959,213.013107 
	C165.627274,211.343964 164.688416,209.724960 163.946609,207.540298 
	C161.740677,208.815002 160.272507,209.899094 158.632965,210.554321 
	C156.304199,211.485046 154.255844,211.298996 154.049927,208.088440 
	C153.636993,201.650452 148.430771,201.930115 144.171844,201.256805 
	C139.829819,200.570328 139.174545,204.410477 138.117706,207.235703 
	C137.377838,209.213608 137.744186,211.636841 136.887421,213.531509 
	C135.811844,215.910080 134.439728,219.093689 132.396729,219.896179 
	C128.393036,221.468842 125.269615,223.040634 124.493744,227.679169 
	C124.363815,228.455917 122.899208,229.009399 122.051315,229.666031 
	C121.358849,228.668381 120.174355,227.714386 120.081139,226.663589 
	C119.911667,224.753036 120.390671,222.784958 120.593788,220.890045 
	C116.115982,218.981827 111.860252,217.175507 107.610504,215.355194 
	C103.292709,213.505768 102.256500,209.100540 106.134720,206.578293 
	C112.591698,202.378937 119.574020,198.987350 125.949852,195.468262 
	C127.882576,197.705276 128.905884,198.889694 129.998993,200.333435 
	C130.613297,200.924942 131.157806,201.257141 131.702301,201.589325 
	C131.806381,201.336838 131.910446,201.084351 132.014526,200.831863 
	C131.361923,200.536148 130.709305,200.240433 130.304016,199.693878 
	C132.503403,198.699722 134.455490,197.956406 136.769440,197.075302 
	C135.746567,195.557419 134.805817,194.161377 134.464005,193.654129 
	C137.521881,191.641296 140.823334,190.318207 142.908478,187.932175 
	C148.583817,181.437820 152.910721,181.361069 159.404083,189.520050 
	C154.856323,191.639694 150.619675,193.614334 147.150497,195.231262 
	C149.270218,196.347931 152.381836,197.393250 154.719833,199.358780 
	C158.174820,202.263336 161.718552,202.893295 165.128906,200.350143 
	C166.901566,199.028229 167.593613,196.257202 169.082657,193.586929 
	C169.000259,193.558105 170.083298,194.330887 171.014221,194.177917 
	C172.779221,193.887863 174.457031,193.067139 176.171066,192.466858 
	C175.495636,191.026535 174.966858,189.490112 174.103775,188.172684 
	C173.229660,186.838440 171.664032,185.884247 171.027863,184.479767 
	C168.345276,178.557510 162.553421,176.807816 157.345764,175.242371 
	C153.063828,173.955231 148.084503,174.712418 143.438202,174.979706 
	C136.968567,175.351883 135.074860,179.135025 138.945267,185.113770 
	C137.093674,186.051086 135.146942,187.865784 133.587692,187.578369 
	C132.198395,187.322281 130.818909,184.897675 130.164536,183.156006 
	C127.972282,177.321106 134.353012,177.639679 136.687286,174.997437 
	C133.508133,172.880646 133.508133,172.880646 128.882858,176.168716 
	C125.975571,175.245758 123.899323,174.586609 121.823074,173.927475 
	C134.775635,165.987396 147.319656,157.257690 160.777710,150.294617 
	C180.341751,140.172379 201.558670,134.591415 224.012115,131.084442 
	C245.951538,146.086029 267.163696,161.068756 288.262695,176.385132 
	C266.182983,201.905243 244.249802,227.121078 222.142151,252.182999 
	C221.138290,253.321030 218.284012,253.864441 216.759369,253.335770 
	C207.356232,250.075272 197.798370,247.025848 188.868286,242.712891 
	C182.092850,239.440582 177.405014,240.616714 172.711670,246.088425 
	C171.512604,246.601624 170.619675,247.052658 169.028809,247.856216 
	C182.708099,257.245392 195.061279,265.724365 207.451508,274.553497 
	C207.161972,277.040466 206.835403,279.177307 206.508850,281.314148 
	C208.617493,281.017120 210.724655,280.708618 212.836411,280.435699 
	C213.145142,280.395782 213.475800,280.525574 213.863861,280.897217 
	C218.905106,288.468842 223.878799,295.720093 228.603943,303.330994 
	C226.912048,308.174622 225.026199,312.574554 224.153946,317.166962 
	C223.335648,321.475372 223.891983,326.028992 223.292023,330.398987 
	C222.595184,335.474670 222.955811,339.844025 227.037628,343.626953 
	C229.157562,345.591614 230.071396,348.878143 232.224487,350.782318 
	C236.432037,354.503418 240.843292,359.913391 245.689163,360.527283 
	C252.347229,361.370667 259.557373,358.687897 266.393433,356.969025 
	C270.240387,356.001801 273.131073,355.927643 275.459869,359.630371 
	C276.135406,360.704468 277.666809,361.665710 278.936371,361.870789 
	C286.432678,363.081573 287.031952,363.563202 285.412842,370.940796 
	C284.095276,376.944275 285.321350,381.780029 290.103638,385.739075 
	C287.274200,388.193848 284.654297,390.417511 281.510590,393.085815 
	C282.771362,394.432800 283.721436,395.447876 284.581726,396.366974 
	C287.507446,394.193237 289.747925,392.528595 292.151245,391.221283 
	C294.590912,399.831909 296.282379,407.823029 291.831879,416.249390 
	C290.339355,419.075165 291.342560,423.810791 292.422821,427.295990 
	C296.098999,439.156128 300.350983,450.837006 304.291321,462.617004 
	C304.808289,464.162598 304.418762,466.075287 305.127014,467.474884 
	C305.827209,468.858643 307.241516,470.565826 308.592377,470.824005 
	C317.093079,472.448700 327.047974,467.064911 332.450439,460.198792 
	C336.809052,454.659332 336.596466,446.498444 343.320038,442.474121 
	C344.062042,442.030029 344.254791,439.925110 344.024628,438.719818 
	C342.483124,430.647247 346.722137,425.807831 353.029999,422.035095 
	C356.694458,419.843414 358.413025,416.527924 357.941528,412.371857 
	C357.323853,406.927277 355.890686,401.540924 355.680847,396.095856 
	C355.528564,392.143433 356.173370,387.897949 357.592010,384.218475 
	C359.119965,380.255524 361.964569,376.800171 364.670380,373.051514 
	C368.670715,372.979706 372.235352,372.979706 376.136444,372.979706 
	C375.939117,371.160736 375.790314,369.788849 375.648438,368.481201 
	C373.787476,368.279816 372.331635,368.122284 371.050476,367.675415 
	C375.154083,360.715973 379.417816,354.214111 382.885498,347.312286 
	C384.942322,343.218536 383.107880,341.393982 378.519043,342.161072 
	C376.064545,342.571381 373.680481,343.391876 371.231232,343.847626 
	C367.331421,344.573181 365.125183,343.189819 365.444611,338.919678 
	C377.817017,335.721832 388.463318,329.723236 397.664673,320.989594 
	C398.842712,322.255157 399.788849,323.303955 401.031616,324.681580 
	C402.231354,323.273895 403.158722,322.185791 404.377747,320.934509 
	C408.551849,318.153595 409.121887,314.899078 407.108917,310.696259 
	C406.000183,308.381287 405.693481,305.682220 405.484741,303.141632 
	C413.692139,302.033020 420.717255,303.304840 424.764771,310.727600 
	C426.767029,314.399536 428.859711,316.555908 433.459320,315.291870 
	C434.734528,321.876343 435.944977,328.126587 436.792908,334.243469 
	C435.765656,334.454559 434.871338,334.629242 434.471649,335.169708 
	C430.353455,340.738220 426.315247,346.365906 422.046204,352.265320 
	C422.899780,353.048370 423.914612,353.979340 425.464111,355.400818 
	C430.096161,349.203552 434.445831,343.384094 439.056030,337.839478 
	C441.368591,342.358521 443.420685,346.602631 445.472778,350.846771 
	C446.160309,350.926788 446.847809,351.006836 447.535339,351.086853 
	C448.998657,347.634613 451.853333,344.096008 451.645538,340.747467 
	C451.162323,332.960388 454.743073,327.932190 460.162537,323.395325 
	C461.811829,322.014709 463.541046,320.549438 464.675659,318.767609 
	C468.150726,313.310333 473.534637,312.333618 479.288391,311.988342 
M365.842407,445.705292 
	C369.959930,446.358765 370.986481,443.045868 371.911774,440.402924 
	C374.649170,432.583923 377.149963,424.672363 379.404419,416.701172 
	C379.937927,414.814758 379.143036,412.552643 378.895966,409.744354 
	C373.976410,413.919739 369.928802,417.148926 366.175537,420.690033 
	C365.271271,421.543152 365.277039,423.416199 364.978027,424.844025 
	C364.341827,427.882263 363.994598,430.998016 363.136749,433.968750 
	C361.918213,438.188477 361.503052,442.105896 365.842407,445.705292 
M203.942154,449.770508 
	C199.680969,450.266357 195.419785,450.762207 190.805298,451.299164 
	C190.906433,452.769806 191.001724,454.155731 191.154572,456.378723 
	C199.267136,454.991241 206.831665,453.697510 214.396210,452.403748 
	C214.479889,451.556885 214.563568,450.709991 214.647247,449.863129 
	C213.131561,449.304779 211.621170,448.318970 210.098801,448.300079 
	C208.334717,448.278198 206.560104,449.106171 203.942154,449.770508 
M230.001785,439.551666 
	C228.629929,440.369537 227.258072,441.187439 225.752365,442.085144 
	C226.720871,443.646973 227.394730,444.733643 228.408737,446.368866 
	C235.087173,441.927155 241.506790,437.657593 248.309082,433.133484 
	C246.842743,431.549103 245.905914,430.536896 245.055466,429.617981 
	C239.997650,432.952301 235.298462,436.050201 230.001785,439.551666 
M168.292435,321.783417 
	C170.753906,319.570404 173.215378,317.357391 175.944092,314.904144 
	C174.427078,313.309174 173.486023,312.319763 172.484055,311.266327 
	C166.838318,316.873291 161.443497,322.231079 155.806702,327.829163 
	C156.977966,328.924103 158.015244,329.893829 158.959366,330.776428 
	C162.061890,327.793060 164.926056,325.038910 168.292435,321.783417 
M408.995392,361.393372 
	C403.691620,363.265686 398.479675,365.500366 393.050171,366.876648 
	C389.704193,367.724823 389.524292,369.098785 390.955475,372.916290 
	C398.432251,370.393005 405.813629,367.901886 413.195007,365.410797 
	C413.272583,364.799072 413.350189,364.187378 413.427765,363.575684 
	C412.178772,362.731384 410.929779,361.887085 408.995392,361.393372 
M264.579407,411.063080 
	C261.560577,413.863037 258.541748,416.662994 255.758972,419.244019 
	C257.061798,421.162109 257.845551,422.316040 258.894592,423.860504 
	C264.689758,417.760742 269.908997,412.267181 275.370880,406.518188 
	C273.948608,405.304626 272.872833,404.386719 271.702789,403.388397 
	C269.334290,405.938385 267.196991,408.239410 264.579407,411.063080 
M198.927963,285.440887 
	C193.973907,290.975372 189.019852,296.509827 183.661484,302.495972 
	C183.679932,302.516205 184.597260,303.523468 185.770462,304.811707 
	C191.456726,298.696503 196.587296,293.178955 202.263489,287.074615 
	C201.728683,286.696014 200.664658,285.942810 198.927963,285.440887 
z"/>
<path fill="#FFFFFF" opacity="1.000000" stroke="none" 
	d="
M234.531342,1.000001 
	C231.029144,1.657666 227.076782,2.469887 223.084381,2.947396 
	C200.606689,5.635824 179.028641,11.590322 158.174866,20.359669 
	C134.364014,30.372511 112.327301,43.426296 92.637886,60.060329 
	C69.522133,79.589005 50.044891,102.324570 34.993767,128.769745 
	C23.388277,149.160873 13.946009,170.455704 8.558516,193.263107 
	C5.359695,206.804977 3.930482,220.764862 1.352813,234.768402 
	C1.000000,157.072952 1.000000,79.145912 1.000000,1.000000 
	C78.687424,1.000000 156.375061,1.000000 234.531342,1.000001 
z"/>
<path fill="#FFFFFF" opacity="1.000000" stroke="none" 
	d="
M513.000000,234.531342 
	C512.342346,231.029144 511.530121,227.076797 511.052612,223.084396 
	C508.364136,200.606689 502.409729,179.028595 493.640350,158.174805 
	C483.627441,134.363968 470.573639,112.327263 453.939606,92.637833 
	C434.410919,69.522087 411.675323,50.044895 385.230164,34.993702 
	C364.838989,23.388151 343.544098,13.946102 320.736755,8.558458 
	C307.194946,5.359568 293.235077,3.930466 279.231598,1.352818 
	C356.927032,1.000000 434.854095,1.000000 513.000000,1.000000 
	C513.000000,78.687424 513.000000,156.375061 513.000000,234.531342 
z"/>
<path fill="#FFFFFF" opacity="1.000000" stroke="none" 
	d="
M278.468658,513.000000 
	C282.079803,512.315247 286.140259,511.472290 290.242523,510.971619 
	C315.786652,507.853790 340.073608,500.604706 363.607056,490.163239 
	C384.036652,481.098938 402.765625,469.359375 419.844513,455.260376 
	C430.989746,446.059723 441.068726,435.384399 450.616913,424.486115 
	C459.352722,414.515045 466.912811,403.484650 474.626984,392.661621 
	C477.858978,388.127075 480.152039,382.923340 482.889221,377.667908 
	C492.456970,361.520111 499.378418,344.515564 503.725433,326.714050 
	C507.515869,311.191864 509.507751,295.230499 512.647156,279.231567 
	C513.000000,356.927185 513.000000,434.854370 513.000000,513.000000 
	C434.979248,513.000000 356.958282,513.000000 278.468658,513.000000 
z"/>
<path fill="#FFFFFF" opacity="1.000000" stroke="none" 
	d="
M153.014969,491.082794 
	C160.642914,494.131012 168.061752,497.963409 175.942169,500.064850 
	C192.573486,504.499939 209.430725,508.099091 226.236023,511.859131 
	C228.928268,512.461426 231.831421,512.121216 234.818542,512.608398 
	C157.072968,513.000000 79.145927,513.000000 1.000000,513.000000 
	C1.000000,435.312561 1.000000,357.624939 1.000000,279.468658 
	C1.657427,282.962097 2.476309,286.905182 2.945449,290.889465 
	C5.528859,312.829559 11.173227,333.967987 19.761164,354.288574 
	C23.009304,361.974304 26.921827,369.379242 30.857742,377.473328 
	C33.065529,381.431885 34.651237,385.038544 36.880070,388.190399 
	C46.311852,401.528046 54.937740,415.621704 65.764755,427.734924 
	C76.889610,440.181427 89.749496,451.242462 102.769592,461.772919 
	C111.824417,469.096375 122.432655,474.499176 132.594421,480.997223 
	C139.566269,484.517242 146.290619,487.800018 153.014969,491.082794 
z"/>
<path fill="#FEFEFE" opacity="1.000000" stroke="none" 
	d="
M213.796310,280.576843 
	C213.475800,280.525574 213.145142,280.395782 212.836411,280.435699 
	C210.724655,280.708618 208.617493,281.017120 206.508850,281.314148 
	C206.835403,279.177307 207.161972,277.040466 207.759247,274.360962 
	C207.255753,272.185394 206.921661,269.944489 205.638062,269.015381 
	C194.863266,261.216125 183.914307,253.657410 173.017807,246.026260 
	C177.405014,240.616714 182.092850,239.440582 188.868286,242.712891 
	C197.798370,247.025848 207.356232,250.075272 216.759369,253.335770 
	C218.284012,253.864441 221.138290,253.321030 222.142151,252.182999 
	C244.249802,227.121078 266.182983,201.905243 288.518127,176.201904 
	C290.164856,174.219025 291.442932,172.753052 292.945435,171.029648 
	C291.370117,169.807220 290.260742,168.850845 289.059692,168.028397 
	C263.494629,150.522385 237.896606,133.064362 212.354370,115.525101 
	C197.116043,105.061287 181.962128,94.474564 166.770264,83.943100 
	C169.278488,79.753273 172.426514,79.196991 177.146576,80.766960 
	C193.365387,86.161583 209.759323,91.029732 226.749542,96.353676 
	C233.885117,98.591560 240.357651,100.574318 246.830200,102.557068 
	C254.574783,105.022293 262.319366,107.487518 270.760803,110.165718 
	C278.177704,112.462418 284.897705,114.546143 291.617737,116.629868 
	C302.719025,120.148117 313.784882,123.788376 324.964355,127.037659 
	C326.442261,127.467216 329.096283,126.428810 330.193848,125.180580 
	C338.991333,115.175369 347.361969,104.792702 356.223511,94.846497 
	C365.893494,83.992912 377.199890,75.131355 391.530121,71.497765 
	C396.822906,70.155708 402.695129,70.686951 408.269684,70.985977 
	C413.651764,71.274666 416.112671,74.936661 417.165405,80.058357 
	C419.874542,93.238258 415.268524,104.641266 407.688812,114.624962 
	C401.302704,123.036514 393.603546,130.529129 385.964508,137.887527 
	C379.501190,144.113449 372.291382,149.564377 364.918030,155.761673 
	C362.940887,158.189804 359.066864,158.530258 360.488220,162.601151 
	C363.203857,170.379028 365.605103,178.266693 368.137726,186.476044 
	C369.170349,189.923294 370.202087,193.003281 371.272583,196.447021 
	C373.543854,203.602692 375.776367,210.394608 378.020447,217.563934 
	C380.508850,225.627319 382.985687,233.313293 385.474060,241.413208 
	C387.590759,248.261444 389.695862,254.695740 391.835388,261.518494 
	C396.254974,275.656738 400.640076,289.406525 405.025177,303.156311 
	C405.693481,305.682220 406.000183,308.381287 407.108917,310.696259 
	C409.121887,314.899078 408.551849,318.153595 404.091217,320.746521 
	C402.707214,319.668030 401.850494,318.649170 401.102997,317.555664 
	C376.608368,281.723816 352.131165,245.880051 327.630493,210.052338 
	C324.208984,205.049011 320.679443,200.119522 316.666382,194.394760 
	C314.981781,196.800537 313.892090,198.356735 312.446655,199.846848 
	C311.626312,199.907074 311.042480,199.895554 310.714142,200.179459 
	C294.086456,214.556808 277.480530,228.959366 260.591431,243.476181 
	C257.330750,246.372147 254.350952,249.151123 251.048004,252.066742 
	C248.434998,254.366348 246.145142,256.529266 243.541565,258.823486 
	C240.612656,261.266144 237.850464,263.437988 235.457184,265.959869 
	C234.544891,266.921204 233.761383,268.935455 234.147034,270.041870 
	C236.157043,275.808777 238.562500,281.437805 240.851196,287.491547 
	C242.124832,291.248291 242.907898,294.908691 244.724503,297.952179 
	C249.003082,305.120453 247.417755,310.770599 241.160172,315.299225 
	C233.412048,303.542419 225.780380,292.142090 217.927917,280.895935 
	C217.426605,280.177979 215.213226,280.655487 213.796310,280.576843 
M403.382172,78.094223 
	C402.297180,78.264183 400.464935,78.163971 400.285126,78.661217 
	C399.928040,79.648796 400.109070,81.242157 400.737244,82.087883 
	C401.989014,83.773155 403.518372,85.392632 405.266602,86.523727 
	C406.630249,87.406021 408.498322,87.508720 410.142242,87.957855 
	C410.513794,87.288879 410.885376,86.619896 411.256927,85.950912 
	C408.842804,83.448784 406.428650,80.946648 403.382172,78.094223 
z"/>
<path fill="#15BCB1" opacity="1.000000" stroke="none" 
	d="
M153.351624,490.947418 
	C146.290619,487.800018 139.566269,484.517242 132.507538,480.550354 
	C131.060959,465.808136 129.813370,451.758942 128.887482,437.688538 
	C128.334915,429.291199 125.743309,422.535522 117.271240,419.121155 
	C115.528275,418.418671 113.823997,416.869049 112.798073,415.264709 
	C107.530800,407.027832 102.488762,398.646881 97.381287,390.308105 
	C97.214287,390.035461 97.057686,389.647705 97.118240,389.360413 
	C98.559769,382.521576 95.232674,375.144348 100.966301,368.634552 
	C106.241074,362.645721 105.058289,355.746582 99.861511,350.262695 
	C97.672745,351.002289 95.188805,352.754730 93.851936,352.113922 
	C90.488121,350.501709 85.862999,348.386200 84.909630,345.445862 
	C81.554588,335.098480 69.515472,336.867859 64.391449,329.476898 
	C64.192924,329.190552 63.416771,329.120453 62.968822,329.218719 
	C54.991528,330.969055 49.623867,325.421356 43.425068,322.238953 
	C40.352917,320.661774 39.111923,318.223602 38.942165,314.588348 
	C38.821918,312.013489 36.985901,309.518768 35.915771,306.988281 
	C39.924297,293.874359 43.043270,280.404663 48.117855,267.717133 
	C60.461342,236.855865 79.482666,210.424072 104.821793,187.967102 
	C108.169235,187.625717 111.442886,188.212448 113.181473,186.846008 
	C115.966965,184.656815 118.004883,183.354797 120.716629,186.583389 
	C124.140938,181.106888 120.025101,179.550629 116.885254,177.536591 
	C117.763351,176.741348 118.641457,175.946106 120.088974,175.022446 
	C121.105972,174.565536 121.553543,174.237045 122.001114,173.908554 
	C122.001114,173.908554 121.920975,173.998932 121.872025,173.963196 
	C123.899323,174.586609 125.975571,175.245758 128.882858,176.168716 
	C133.508133,172.880646 133.508133,172.880646 136.687286,174.997437 
	C134.353012,177.639679 127.972282,177.321106 130.164536,183.156006 
	C130.818909,184.897675 132.198395,187.322281 133.587692,187.578369 
	C135.146942,187.865784 137.093674,186.051086 138.945267,185.113770 
	C135.074860,179.135025 136.968567,175.351883 143.438202,174.979706 
	C148.084503,174.712418 153.063828,173.955231 157.345764,175.242371 
	C162.553421,176.807816 168.345276,178.557510 171.027863,184.479767 
	C171.664032,185.884247 173.229660,186.838440 174.103775,188.172684 
	C174.966858,189.490112 175.495636,191.026535 176.171066,192.466858 
	C174.457031,193.067139 172.779221,193.887863 171.014221,194.177917 
	C170.083298,194.330887 169.000259,193.558105 169.082657,193.586929 
	C167.593613,196.257202 166.901566,199.028229 165.128906,200.350143 
	C161.718552,202.893295 158.174820,202.263336 154.719833,199.358780 
	C152.381836,197.393250 149.270218,196.347931 147.150497,195.231262 
	C150.619675,193.614334 154.856323,191.639694 159.404083,189.520050 
	C152.910721,181.361069 148.583817,181.437820 142.908478,187.932175 
	C140.823334,190.318207 137.521881,191.641296 134.464005,193.654129 
	C134.805817,194.161377 135.746567,195.557419 136.769440,197.075302 
	C134.455490,197.956406 132.503403,198.699722 130.271912,199.726013 
	C129.992523,200.009003 129.929184,200.074112 129.929184,200.074112 
	C128.905884,198.889694 127.882576,197.705276 125.949852,195.468262 
	C119.574020,198.987350 112.591698,202.378937 106.134720,206.578293 
	C102.256500,209.100540 103.292709,213.505768 107.610504,215.355194 
	C111.860252,217.175507 116.115982,218.981827 120.593788,220.890045 
	C120.390671,222.784958 119.911667,224.753036 120.081139,226.663589 
	C120.174355,227.714386 121.358849,228.668381 122.051315,229.666031 
	C122.899208,229.009399 124.363815,228.455917 124.493744,227.679169 
	C125.269615,223.040634 128.393036,221.468842 132.396729,219.896179 
	C134.439728,219.093689 135.811844,215.910080 136.887421,213.531509 
	C137.744186,211.636841 137.377838,209.213608 138.117706,207.235703 
	C139.174545,204.410477 139.829819,200.570328 144.171844,201.256805 
	C148.430771,201.930115 153.636993,201.650452 154.049927,208.088440 
	C154.255844,211.298996 156.304199,211.485046 158.632965,210.554321 
	C160.272507,209.899094 161.740677,208.815002 163.946609,207.540298 
	C164.688416,209.724960 165.627274,211.343964 165.726959,213.013107 
	C165.961655,216.942993 167.259628,219.722031 170.829926,222.010468 
	C172.214417,222.897858 172.316833,226.646393 172.067245,228.991943 
	C171.790817,231.589752 170.365906,233.886871 173.121948,236.205658 
	C173.987106,236.933548 174.032928,239.442368 173.491486,240.732086 
	C173.167007,241.505005 170.940613,241.881287 169.638275,241.749863 
	C167.565689,241.540756 165.550919,240.758926 162.646378,239.990356 
	C164.597733,236.943207 166.134491,234.543442 167.746674,232.025894 
	C161.355942,233.133499 155.243439,234.192902 149.318848,235.219711 
	C149.460205,236.335709 150.314865,238.415115 149.820709,240.098602 
	C148.576691,244.336761 150.055344,245.372543 153.943924,244.584396 
	C154.703232,244.430496 155.500778,244.465302 156.495987,244.398651 
	C154.144196,248.436066 146.749268,251.236450 143.258728,249.300751 
	C143.206177,248.946564 143.194321,248.684036 143.194321,248.684036 
	C143.194321,248.684036 142.975357,248.967957 142.975357,248.967957 
	C138.285522,249.632996 133.786545,250.520554 131.789963,255.754044 
	C131.434708,256.685242 130.269180,257.360291 129.382401,258.026672 
	C125.442101,260.987488 121.360954,263.774017 117.571053,266.913635 
	C116.472382,267.823822 116.270279,269.754700 115.483322,271.117249 
	C114.311668,273.145874 113.232422,275.319153 111.649071,276.990601 
	C110.322296,278.391144 108.232628,279.033081 106.651245,280.235229 
	C102.099762,283.695190 97.491432,287.132477 99.900932,294.106659 
	C100.336563,295.367584 99.791908,296.967133 99.699821,298.410370 
	C99.259056,298.686035 98.818283,298.961670 98.377510,299.237335 
	C97.251472,298.037750 95.613167,297.026459 95.090645,295.605011 
	C93.130936,290.274109 86.555122,287.684723 81.045288,289.912323 
	C78.628197,290.889526 75.726418,291.357880 73.145340,291.089539 
	C68.412460,290.597443 64.591499,292.440674 62.319977,295.932617 
	C58.731159,301.449615 57.095909,307.827911 58.454659,314.518188 
	C59.313290,318.745941 61.851612,321.951630 66.246811,322.638092 
	C70.269058,323.266327 72.278282,320.257080 74.475792,317.313629 
	C75.672325,315.710968 78.351364,315.215057 80.361755,314.219971 
	C80.578545,316.158295 80.917694,318.093903 80.959732,320.035980 
	C80.980309,320.986298 80.463585,321.953369 80.164024,322.904633 
	C78.257599,328.958557 78.509888,329.507019 84.745872,329.841705 
	C88.836655,330.061279 90.386688,331.923004 89.957916,335.891052 
	C89.710854,338.177490 89.423424,340.544647 89.746330,342.790314 
	C90.476089,347.865570 92.600365,348.475586 97.597778,348.512939 
	C103.037308,348.553650 107.344467,348.777557 110.699623,343.039886 
	C112.915558,339.250397 118.835426,340.098724 121.872581,341.786591 
	C127.841637,345.103851 134.098007,343.934235 140.447571,345.401672 
	C138.151001,349.937836 135.561661,354.107727 132.778503,358.589752 
	C134.528717,359.306122 135.825790,359.837036 137.076645,360.349030 
	C139.551529,356.612854 141.801132,353.216797 144.050720,349.820770 
	C148.788773,353.596436 152.838058,358.024994 159.786255,358.621796 
	C162.429916,358.848846 165.578659,363.072906 166.941086,366.161682 
	C169.340546,371.601379 171.915009,375.506134 178.235077,377.493896 
	C185.977600,379.929047 193.170319,384.167816 200.509644,387.810364 
	C205.588593,390.331085 207.773590,394.317596 204.737900,398.720215 
	C198.504745,407.760040 197.984711,417.849823 196.873062,428.047455 
	C196.197128,434.247894 193.496307,438.980377 186.556259,440.464020 
	C182.101242,441.416473 179.619278,444.276520 179.817657,449.498260 
	C179.929581,452.444397 178.411270,455.513489 177.345825,458.424133 
	C176.492615,460.754944 174.819122,462.828186 174.207855,465.195984 
	C172.927811,470.154236 170.417389,472.856934 164.256012,471.133850 
	C165.034348,472.983154 165.456604,474.138794 165.994858,475.237640 
	C167.835922,478.995972 167.000641,481.360321 162.906998,483.046906 
	C160.945663,483.854980 159.651031,486.196594 157.931244,487.703033 
	C156.617340,488.854004 155.109741,489.783844 153.351624,490.947418 
M142.793686,421.652893 
	C140.574600,417.614197 138.355515,413.575500 136.014862,409.315552 
	C134.715225,409.847137 133.541748,410.327148 131.391983,411.206451 
	C135.563095,418.279785 139.523911,424.996460 143.736908,432.140808 
	C145.604950,430.424622 146.541656,429.564056 147.544205,428.643036 
	C145.985382,426.389313 144.569458,424.342194 142.793686,421.652893 
M173.129135,452.363007 
	C176.893311,454.015991 176.851868,451.519226 176.972214,449.429718 
	C170.243576,445.893250 163.831573,442.523193 157.074966,438.972046 
	C156.457169,439.834290 155.653885,440.955414 154.240356,442.928284 
	C160.649002,446.173157 166.519791,449.145721 173.129135,452.363007 
M132.020676,378.120117 
	C132.399826,375.329590 133.360413,372.132904 127.819672,373.136414 
	C127.819672,380.881134 127.819672,388.730286 127.819672,396.532288 
	C131.726669,396.635132 132.568863,395.427429 132.227493,392.342926 
	C131.740158,387.939270 132.008347,383.452057 132.020676,378.120117 
z"/>
<path fill="#0F7886" opacity="1.000000" stroke="none" 
	d="
M35.718132,307.314514 
	C36.985901,309.518768 38.821918,312.013489 38.942165,314.588348 
	C39.111923,318.223602 40.352917,320.661774 43.425068,322.238953 
	C49.623867,325.421356 54.991528,330.969055 62.968822,329.218719 
	C63.416771,329.120453 64.192924,329.190552 64.391449,329.476898 
	C69.515472,336.867859 81.554588,335.098480 84.909630,345.445862 
	C85.862999,348.386200 90.488121,350.501709 93.851936,352.113922 
	C95.188805,352.754730 97.672745,351.002289 99.861511,350.262695 
	C105.058289,355.746582 106.241074,362.645721 100.966301,368.634552 
	C95.232674,375.144348 98.559769,382.521576 97.118240,389.360413 
	C97.057686,389.647705 97.214287,390.035461 97.381287,390.308105 
	C102.488762,398.646881 107.530800,407.027832 112.798073,415.264709 
	C113.823997,416.869049 115.528275,418.418671 117.271240,419.121155 
	C125.743309,422.535522 128.334915,429.291199 128.887482,437.688538 
	C129.813370,451.758942 131.060959,465.808136 132.260040,480.313110 
	C122.432655,474.499176 111.824417,469.096375 102.769592,461.772919 
	C89.749496,451.242462 76.889610,440.181427 65.764755,427.734924 
	C54.937740,415.621704 46.311852,401.528046 36.880070,388.190399 
	C34.651237,385.038544 33.065529,381.431885 31.152056,377.700073 
	C30.988865,367.097046 30.186392,356.781891 30.894732,346.571533 
	C31.798071,333.550293 33.922440,320.613770 35.718132,307.314514 
z"/>
<path fill="#16BDB1" opacity="1.000000" stroke="none" 
	d="
M371.233795,196.083267 
	C370.202087,193.003281 369.170349,189.923294 368.567657,186.464966 
	C375.362762,185.335464 381.728851,184.584290 388.049713,183.838470 
	C386.843292,178.885162 387.297974,175.879486 395.381866,176.403564 
	C395.381866,176.403564 395.536926,176.351471 395.466003,176.788040 
	C396.558258,177.730728 397.721436,178.236832 398.884583,178.742935 
	C423.160950,197.767395 442.202087,221.175812 456.797882,248.245361 
	C467.477081,268.051117 475.119781,288.974396 479.249573,311.566864 
	C473.534637,312.333618 468.150726,313.310333 464.675659,318.767609 
	C463.541046,320.549438 461.811829,322.014709 460.162537,323.395325 
	C454.743073,327.932190 451.162323,332.960388 451.645538,340.747467 
	C451.853333,344.096008 448.998657,347.634613 447.535339,351.086853 
	C446.847809,351.006836 446.160309,350.926788 445.472778,350.846771 
	C443.420685,346.602631 441.368591,342.358521 439.098541,337.551819 
	C438.305511,336.118408 437.730469,335.247620 437.155457,334.376801 
	C435.944977,328.126587 434.734528,321.876343 433.459320,315.291870 
	C428.859711,316.555908 426.767029,314.399536 424.764771,310.727600 
	C420.717255,303.304840 413.692139,302.033020 405.484741,303.141632 
	C400.640076,289.406525 396.254974,275.656738 392.159607,261.365601 
	C397.789917,256.479614 403.130432,252.134995 408.687073,247.586639 
	C409.915436,245.778107 410.927643,244.173325 411.416229,243.398727 
	C406.657104,238.354324 402.396637,233.838455 397.925140,229.098907 
	C396.330994,230.244370 394.745789,231.383423 392.869598,232.736237 
	C390.206573,235.633102 387.834534,238.316193 385.462524,240.999268 
	C382.985687,233.313293 380.508850,225.627319 378.355408,217.453995 
	C383.605652,212.874756 388.532501,208.782867 393.665710,204.489212 
	C394.814545,202.743332 395.757019,201.199203 396.316498,200.282578 
	C391.708557,195.386276 387.408813,190.817490 382.880035,186.005325 
	C381.210968,187.238068 379.631287,188.404755 377.754059,189.754837 
	C375.382263,191.986572 373.308044,194.034912 371.233795,196.083267 
M453.903503,305.498932 
	C452.744873,304.549591 451.586243,303.600220 450.143585,302.418152 
	C447.255524,309.264526 444.766754,315.164368 442.147217,321.374176 
	C443.720764,321.989502 444.994720,322.487671 446.546173,323.094330 
	C449.042847,317.182983 451.356720,311.704498 453.903503,305.498932 
M390.507141,185.501633 
	C390.507141,185.501633 390.467133,185.508011 390.507141,185.501633 
z"/>
<path fill="#C9CACD" opacity="1.000000" stroke="none" 
	d="
M166.495132,84.068573 
	C181.962128,94.474564 197.116043,105.061287 212.354370,115.525101 
	C237.896606,133.064362 263.494629,150.522385 289.059692,168.028397 
	C290.260742,168.850845 291.370117,169.807220 292.945435,171.029648 
	C291.442932,172.753052 290.164856,174.219025 288.631348,175.868240 
	C267.163696,161.068756 245.951538,146.086029 224.415985,130.993378 
	C209.692154,120.559502 195.296661,110.228676 180.888870,99.915016 
	C175.233276,95.866516 169.550156,91.856445 163.322983,87.433563 
	C164.404846,86.223785 165.312424,85.208908 166.495132,84.068573 
z"/>
<path fill="#127A87" opacity="1.000000" stroke="none" 
	d="
M395.263977,176.111450 
	C387.297974,175.879486 386.843292,178.885162 388.049713,183.838470 
	C381.728851,184.584290 375.362762,185.335464 368.566742,186.097717 
	C365.605103,178.266693 363.203857,170.379028 360.488220,162.601151 
	C359.066864,158.530258 362.940887,158.189804 364.755676,156.044403 
	C375.106812,162.555588 385.126434,169.187454 395.263977,176.111450 
z"/>
<path fill="#FBB42B" opacity="1.000000" stroke="none" 
	d="
M247.144592,102.372307 
	C240.357651,100.574318 233.885117,98.591560 227.134155,96.370338 
	C231.204178,90.745461 235.552628,85.359062 240.481003,80.109673 
	C245.806335,84.966919 250.551712,89.687157 255.297104,94.407394 
	C252.684402,97.000778 250.071686,99.594162 247.144592,102.372307 
z"/>
<path fill="#FBB42B" opacity="1.000000" stroke="none" 
	d="
M291.896545,116.377991 
	C284.897705,114.546143 278.177704,112.462418 271.137177,110.168976 
	C274.849274,104.980247 278.881836,100.001244 283.471252,95.159805 
	C288.760529,100.035454 293.492981,104.773544 298.225433,109.511620 
	C296.208740,111.716446 294.192047,113.921280 291.896545,116.377991 
z"/>
<path fill="#FFF7ED" opacity="1.000000" stroke="none" 
	d="
M255.553299,94.213264 
	C250.551712,89.687157 245.806335,84.966919 240.783661,79.988632 
	C242.000610,78.534790 243.494843,77.338989 245.701309,75.573204 
	C249.680481,79.838364 253.336609,83.837631 257.085266,87.748207 
	C259.760132,90.538612 257.005157,92.089409 255.553299,94.213264 
z"/>
<path fill="#FFF7EE" opacity="1.000000" stroke="none" 
	d="
M298.505188,109.332184 
	C293.492981,104.773544 288.760529,100.035454 283.766357,95.026894 
	C286.440399,91.003036 289.170532,91.108643 292.147339,94.878387 
	C293.967987,97.184021 296.102356,99.328758 298.414124,101.139343 
	C301.838013,103.820946 301.833038,106.334251 298.505188,109.332184 
z"/>
<path fill="#107A87" opacity="1.000000" stroke="none" 
	d="
M116.552948,177.685593 
	C120.025101,179.550629 124.140938,181.106888 120.716629,186.583389 
	C118.004883,183.354797 115.966965,184.656815 113.181473,186.846008 
	C111.442886,188.212448 108.169235,187.625717 105.133636,187.856995 
	C108.528770,184.477219 112.374702,181.155914 116.552948,177.685593 
z"/>
<path fill="#127A87" opacity="1.000000" stroke="none" 
	d="
M398.738892,178.493561 
	C397.721436,178.236832 396.558258,177.730728 395.506287,176.859222 
	C396.609375,177.077301 397.601318,177.660751 398.738892,178.493561 
z"/>
<path fill="#0F7886" opacity="1.000000" stroke="none" 
	d="
M121.704926,173.895203 
	C121.553543,174.237045 121.105972,174.565536 120.379730,174.950989 
	C120.536957,174.632584 120.972847,174.257202 121.704926,173.895203 
z"/>
<path fill="#15BDB1" opacity="1.000000" stroke="none" 
	d="
M243.855286,258.692200 
	C246.145142,256.529266 248.434998,254.366348 251.427689,252.074631 
	C261.445465,252.964478 262.721710,251.710876 260.872284,243.359177 
	C277.480530,228.959366 294.086456,214.556808 310.714142,200.179459 
	C311.042480,199.895554 311.626312,199.907074 312.526886,200.205170 
	C313.956116,202.151306 314.908447,203.701660 315.949097,205.190277 
	C324.954803,218.072479 333.976349,230.943604 342.747864,244.090851 
	C340.828278,249.835388 340.404968,249.862991 335.754822,246.352722 
	C334.566772,245.455902 332.182678,244.773163 331.092499,245.364502 
	C327.255402,247.445847 325.451935,254.733139 327.418488,260.231354 
	C334.790894,255.905701 342.509979,256.626282 350.301025,258.971741 
	C351.349670,259.287445 352.600800,258.930695 353.988770,259.151123 
	C361.518616,269.842163 368.817810,280.267426 375.905701,290.973206 
	C375.236450,296.706268 378.903809,299.021362 383.040955,300.977753 
	C383.009277,301.000458 383.055267,300.937775 383.007416,301.314178 
	C384.304901,303.114258 385.650238,304.537933 387.262604,306.168030 
	C390.830658,311.173920 394.131714,315.973358 397.432739,320.772827 
	C388.463318,329.723236 377.817017,335.721832 365.444611,338.919678 
	C365.125183,343.189819 367.331421,344.573181 371.231232,343.847626 
	C373.680481,343.391876 376.064545,342.571381 378.519043,342.161072 
	C383.107880,341.393982 384.942322,343.218536 382.885498,347.312286 
	C379.417816,354.214111 375.154083,360.715973 370.603760,367.747131 
	C364.242157,368.108185 358.501953,368.108185 352.756897,368.108185 
	C351.627258,371.257996 352.682068,372.498840 355.845703,372.516357 
	C358.643097,372.531830 361.438446,372.907013 364.234711,373.123352 
	C361.964569,376.800171 359.119965,380.255524 357.592010,384.218475 
	C356.173370,387.897949 355.528564,392.143433 355.680847,396.095856 
	C355.890686,401.540924 357.323853,406.927277 357.941528,412.371857 
	C358.413025,416.527924 356.694458,419.843414 353.029999,422.035095 
	C346.722137,425.807831 342.483124,430.647247 344.024628,438.719818 
	C344.254791,439.925110 344.062042,442.030029 343.320038,442.474121 
	C336.596466,446.498444 336.809052,454.659332 332.450439,460.198792 
	C327.047974,467.064911 317.093079,472.448700 308.592377,470.824005 
	C307.241516,470.565826 305.827209,468.858643 305.127014,467.474884 
	C304.418762,466.075287 304.808289,464.162598 304.291321,462.617004 
	C300.350983,450.837006 296.098999,439.156128 292.422821,427.295990 
	C291.342560,423.810791 290.339355,419.075165 291.831879,416.249390 
	C296.282379,407.823029 294.590912,399.831909 292.314178,390.931824 
	C295.949432,387.727020 299.584564,385.168945 303.374084,382.502228 
	C302.540344,381.195129 301.859589,380.127838 300.958374,378.714874 
	C297.242249,381.086273 293.777710,383.297150 290.313171,385.507996 
	C285.321350,381.780029 284.095276,376.944275 285.412842,370.940796 
	C287.031952,363.563202 286.432678,363.081573 278.936371,361.870789 
	C277.666809,361.665710 276.135406,360.704468 275.459869,359.630371 
	C273.131073,355.927643 270.240387,356.001801 266.393433,356.969025 
	C259.557373,358.687897 252.347229,361.370667 245.689163,360.527283 
	C240.843292,359.913391 236.432037,354.503418 232.224487,350.782318 
	C230.071396,348.878143 229.157562,345.591614 227.037628,343.626953 
	C222.955811,339.844025 222.595184,335.474670 223.292023,330.398987 
	C223.891983,326.028992 223.335648,321.475372 224.153946,317.166962 
	C225.026199,312.574554 226.912048,308.174622 228.841248,303.579742 
	C232.198898,307.473389 235.059525,311.486084 237.948730,315.478058 
	C238.924408,316.826141 239.932663,318.748871 241.225800,315.691193 
	C247.417755,310.770599 249.003082,305.120453 244.724503,297.952179 
	C242.907898,294.908691 242.124832,291.248291 240.885330,287.120117 
	C242.713043,283.944397 244.218887,281.182892 246.407593,279.160248 
	C250.671814,275.219574 250.505661,272.786469 245.838074,269.782440 
	C244.412628,268.865021 243.575043,266.434082 243.258545,264.562622 
	C242.942337,262.692932 243.615738,260.655884 243.855286,258.692200 
M318.827118,260.241150 
	C316.314911,261.344360 316.122314,262.871704 317.037567,265.462036 
	C317.506470,266.789276 316.041962,268.799622 315.451233,270.501221 
	C314.109619,269.616180 312.348999,269.014771 311.516541,267.785034 
	C309.943665,265.461761 308.692871,262.858337 307.684479,260.227081 
	C305.012360,253.254913 297.674469,251.863342 293.022400,247.165451 
	C292.238373,252.617538 295.972473,255.079285 299.435486,257.163147 
	C303.579376,259.656677 303.163605,262.128479 300.893829,265.438141 
	C299.049500,263.333771 297.590454,261.301941 295.770477,259.673584 
	C292.597931,256.835052 289.311035,254.091919 285.836609,251.642792 
	C284.771790,250.892197 282.894592,250.946884 281.468567,251.160660 
	C280.225372,251.347015 279.111633,252.755066 277.909698,252.800323 
	C269.935516,253.100571 266.731598,259.098206 263.802765,264.924896 
	C262.121857,268.268982 260.047150,270.159882 256.537476,270.972351 
	C254.982178,271.332428 253.558746,272.262177 252.075455,272.933350 
	C252.231781,273.630554 252.388107,274.327759 252.544434,275.024994 
	C255.432831,274.674194 258.745270,275.110565 261.130493,273.825684 
	C268.417297,269.900330 276.182556,269.940247 283.977173,270.189972 
	C285.337036,270.233551 287.878357,272.520691 287.749481,273.488800 
	C286.982117,279.252563 290.278900,281.047211 294.906647,282.232849 
	C296.436829,282.624908 297.696350,283.980042 299.163666,284.730560 
	C302.037476,286.200500 304.970337,287.555023 307.844208,288.940704 
	C311.839142,281.139709 311.933746,280.890076 319.842621,283.887573 
	C325.930176,286.194794 332.063599,286.912231 338.374481,285.953003 
	C340.209351,285.674103 343.009277,284.584229 343.386200,283.289520 
	C344.315552,280.097321 344.141327,276.572266 344.262878,273.175751 
	C344.274078,272.863068 343.244324,272.262115 342.667297,272.220581 
	C339.257416,271.975006 335.755035,271.312775 332.442505,271.822510 
	C327.667877,272.557220 325.366638,270.552002 323.661163,266.486542 
	C322.703461,264.203674 320.943146,262.257507 318.827118,260.241150 
M355.484314,327.891510 
	C358.259338,330.805359 361.034363,333.719238 363.809418,336.633087 
	C364.218872,336.317261 364.628326,336.001404 365.037781,335.685577 
	C360.301880,321.480103 352.913086,308.676086 345.027374,296.134583 
	C344.260803,296.448608 343.494202,296.762634 342.727600,297.076660 
	C343.510590,299.775696 344.015808,302.595734 345.129120,305.150848 
	C348.357117,312.559418 351.829254,319.861633 355.484314,327.891510 
M321.918762,370.420380 
	C320.643250,370.781616 319.382660,371.211884 318.089447,371.491211 
	C314.089050,372.355255 314.285187,374.290619 316.191772,376.596710 
	C323.708801,375.107391 330.815521,373.699341 338.289764,372.218506 
	C338.149414,370.893311 338.004486,369.524719 337.805908,367.649841 
	C332.490997,368.542358 327.603607,369.363098 321.918762,370.420380 
z"/>
<path fill="#C6CBCD" opacity="1.000000" stroke="none" 
	d="
M376.117004,290.692688 
	C368.817810,280.267426 361.518616,269.842163 353.881104,258.849731 
	C350.026245,253.461014 346.509735,248.639511 342.993195,243.818024 
	C333.976349,230.943604 324.954803,218.072479 315.949097,205.190277 
	C314.908447,203.701660 313.956116,202.151306 312.882629,200.271271 
	C313.892090,198.356735 314.981781,196.800537 316.666382,194.394760 
	C320.679443,200.119522 324.208984,205.049011 327.630493,210.052338 
	C352.131165,245.880051 376.608368,281.723816 401.102997,317.555664 
	C401.850494,318.649170 402.707214,319.668030 403.799530,320.909668 
	C403.158722,322.185791 402.231354,323.273895 401.031616,324.681580 
	C399.788849,323.303955 398.842712,322.255157 397.664673,320.989594 
	C394.131714,315.973358 390.830658,311.173920 387.176636,305.852722 
	C385.567535,303.866577 384.311401,302.402161 383.055267,300.937775 
	C383.055267,300.937775 383.009277,301.000458 383.032532,300.625000 
	C380.742859,297.063934 378.429932,293.878296 376.117004,290.692688 
z"/>
<path fill="#15BBB0" opacity="1.000000" stroke="none" 
	d="
M365.502991,445.546143 
	C361.503052,442.105896 361.918213,438.188477 363.136749,433.968750 
	C363.994598,430.998016 364.341827,427.882263 364.978027,424.844025 
	C365.277039,423.416199 365.271271,421.543152 366.175537,420.690033 
	C369.928802,417.148926 373.976410,413.919739 378.895966,409.744354 
	C379.143036,412.552643 379.937927,414.814758 379.404419,416.701172 
	C377.149963,424.672363 374.649170,432.583923 371.911774,440.402924 
	C370.986481,443.045868 369.959930,446.358765 365.502991,445.546143 
z"/>
<path fill="#C5CBCD" opacity="1.000000" stroke="none" 
	d="
M172.711670,246.088425 
	C183.914307,253.657410 194.863266,261.216125 205.638062,269.015381 
	C206.921661,269.944489 207.255753,272.185394 207.722214,274.010803 
	C195.061279,265.724365 182.708099,257.245392 169.028809,247.856216 
	C170.619675,247.052658 171.512604,246.601624 172.711670,246.088425 
z"/>
<path fill="#C5CCCE" opacity="1.000000" stroke="none" 
	d="
M241.160172,315.299225 
	C239.932663,318.748871 238.924408,316.826141 237.948730,315.478058 
	C235.059525,311.486084 232.198898,307.473389 229.089813,303.220093 
	C223.878799,295.720093 218.905106,288.468842 213.863861,280.897217 
	C215.213226,280.655487 217.426605,280.177979 217.927917,280.895935 
	C225.780380,292.142090 233.412048,303.542419 241.160172,315.299225 
z"/>
<path fill="#F1F7F8" opacity="1.000000" stroke="none" 
	d="
M204.366119,449.667847 
	C206.560104,449.106171 208.334717,448.278198 210.098801,448.300079 
	C211.621170,448.318970 213.131561,449.304779 214.647247,449.863129 
	C214.563568,450.709991 214.479889,451.556885 214.396210,452.403748 
	C206.831665,453.697510 199.267136,454.991241 191.154572,456.378723 
	C191.001724,454.155731 190.906433,452.769806 190.805298,451.299164 
	C195.419785,450.762207 199.680969,450.266357 204.366119,449.667847 
z"/>
<path fill="#F0F7F7" opacity="1.000000" stroke="none" 
	d="
M230.300522,439.349915 
	C235.298462,436.050201 239.997650,432.952301 245.055466,429.617981 
	C245.905914,430.536896 246.842743,431.549103 248.309082,433.133484 
	C241.506790,437.657593 235.087173,441.927155 228.408737,446.368866 
	C227.394730,444.733643 226.720871,443.646973 225.752365,442.085144 
	C227.258072,441.187439 228.629929,440.369537 230.300522,439.349915 
z"/>
<path fill="#EAF3F4" opacity="1.000000" stroke="none" 
	d="
M168.041321,322.034058 
	C164.926056,325.038910 162.061890,327.793060 158.959366,330.776428 
	C158.015244,329.893829 156.977966,328.924103 155.806702,327.829163 
	C161.443497,322.231079 166.838318,316.873291 172.484055,311.266327 
	C173.486023,312.319763 174.427078,313.309174 175.944092,314.904144 
	C173.215378,317.357391 170.753906,319.570404 168.041321,322.034058 
z"/>
<path fill="#EEF9F9" opacity="1.000000" stroke="none" 
	d="
M364.670380,373.051544 
	C361.438446,372.907013 358.643097,372.531830 355.845703,372.516357 
	C352.682068,372.498840 351.627258,371.257996 352.756897,368.108185 
	C358.501953,368.108185 364.242157,368.108185 370.429077,368.036469 
	C372.331635,368.122284 373.787476,368.279816 375.648438,368.481201 
	C375.790314,369.788849 375.939117,371.160736 376.136444,372.979706 
	C372.235352,372.979706 368.670715,372.979706 364.670380,373.051544 
z"/>
<path fill="#F2F8F8" opacity="1.000000" stroke="none" 
	d="
M436.792908,334.243469 
	C437.730469,335.247620 438.305511,336.118408 438.838013,337.276917 
	C434.445831,343.384094 430.096161,349.203552 425.464111,355.400818 
	C423.914612,353.979340 422.899780,353.048370 422.046204,352.265320 
	C426.315247,346.365906 430.353455,340.738220 434.471649,335.169708 
	C434.871338,334.629242 435.765656,334.454559 436.792908,334.243469 
z"/>
<path fill="#F1F7F8" opacity="1.000000" stroke="none" 
	d="
M409.338074,361.218079 
	C410.929779,361.887085 412.178772,362.731384 413.427765,363.575684 
	C413.350189,364.187378 413.272583,364.799072 413.195007,365.410797 
	C405.813629,367.901886 398.432251,370.393005 390.955475,372.916290 
	C389.524292,369.098785 389.704193,367.724823 393.050171,366.876648 
	C398.479675,365.500366 403.691620,363.265686 409.338074,361.218079 
z"/>
<path fill="#F0F9F9" opacity="1.000000" stroke="none" 
	d="
M290.103638,385.739075 
	C293.777710,383.297150 297.242249,381.086273 300.958374,378.714874 
	C301.859589,380.127838 302.540344,381.195129 303.374084,382.502228 
	C299.584564,385.168945 295.949432,387.727020 292.151367,390.574524 
	C289.747925,392.528595 287.507446,394.193237 284.581726,396.366974 
	C283.721436,395.447876 282.771362,394.432800 281.510590,393.085815 
	C284.654297,390.417511 287.274200,388.193848 290.103638,385.739075 
z"/>
<path fill="#F1F9F9" opacity="1.000000" stroke="none" 
	d="
M144.140930,349.508148 
	C141.801132,353.216797 139.551529,356.612854 137.076645,360.349030 
	C135.825790,359.837036 134.528717,359.306122 132.778503,358.589752 
	C135.561661,354.107727 138.151001,349.937836 140.837036,345.459412 
	C142.602936,343.151825 144.272125,341.152771 146.193512,338.851715 
	C147.353027,339.673035 148.477448,340.469543 149.836456,341.432190 
	C147.850525,344.182709 146.040833,346.689117 144.140930,349.508148 
z"/>
<path fill="#F1F7F8" opacity="1.000000" stroke="none" 
	d="
M264.819580,410.801758 
	C267.196991,408.239410 269.334290,405.938385 271.702789,403.388397 
	C272.872833,404.386719 273.948608,405.304626 275.370880,406.518188 
	C269.908997,412.267181 264.689758,417.760742 258.894592,423.860504 
	C257.845551,422.316040 257.061798,421.162109 255.758972,419.244019 
	C258.541748,416.662994 261.560577,413.863037 264.819580,410.801758 
z"/>
<path fill="#F7FAFB" opacity="1.000000" stroke="none" 
	d="
M199.264297,285.315247 
	C200.664658,285.942810 201.728683,286.696014 202.263489,287.074615 
	C196.587296,293.178955 191.456726,298.696503 185.770462,304.811707 
	C184.597260,303.523468 183.679932,302.516205 183.661484,302.495972 
	C189.019852,296.509827 193.973907,290.975372 199.264297,285.315247 
z"/>
<path fill="#15BCB1" opacity="1.000000" stroke="none" 
	d="
M130.024612,199.976868 
	C130.709305,200.240433 131.361923,200.536148 132.014526,200.831863 
	C131.910446,201.084351 131.806381,201.336838 131.702301,201.589325 
	C131.157806,201.257141 130.613297,200.924942 129.998993,200.333435 
	C129.929184,200.074112 129.992523,200.009003 130.024612,199.976868 
z"/>
<path fill="#F9B52C" opacity="1.000000" stroke="none" 
	d="
M385.474091,241.413208 
	C387.834534,238.316193 390.206573,235.633102 393.152771,232.937439 
	C398.641571,237.880035 403.556244,242.835220 408.470947,247.790405 
	C403.130432,252.134995 397.789917,256.479614 392.125183,260.977112 
	C389.695862,254.695740 387.590759,248.261444 385.474091,241.413208 
z"/>
<path fill="#F8B52D" opacity="1.000000" stroke="none" 
	d="
M371.272583,196.447021 
	C373.308044,194.034912 375.382263,191.986572 378.047882,189.945007 
	C383.579285,194.864853 388.519318,199.777908 393.459351,204.690979 
	C388.532501,208.782867 383.605652,212.874756 378.343842,217.076569 
	C375.776367,210.394608 373.543854,203.602692 371.272583,196.447021 
z"/>
<path fill="#137C89" opacity="1.000000" stroke="none" 
	d="
M243.541565,258.823486 
	C243.615738,260.655884 242.942337,262.692932 243.258545,264.562622 
	C243.575043,266.434082 244.412628,268.865021 245.838074,269.782440 
	C250.505661,272.786469 250.671814,275.219574 246.407593,279.160248 
	C244.218887,281.182892 242.713043,283.944397 240.864471,286.743408 
	C238.562500,281.437805 236.157043,275.808777 234.147034,270.041870 
	C233.761383,268.935455 234.544891,266.921204 235.457184,265.959869 
	C237.850464,263.437988 240.612656,261.266144 243.541565,258.823486 
z"/>
<path fill="#25C1B6" opacity="1.000000" stroke="none" 
	d="
M403.698364,78.269363 
	C406.428650,80.946648 408.842804,83.448784 411.256927,85.950912 
	C410.885376,86.619896 410.513794,87.288879 410.142242,87.957855 
	C408.498322,87.508720 406.630249,87.406021 405.266602,86.523727 
	C403.518372,85.392632 401.989014,83.773155 400.737244,82.087883 
	C400.109070,81.242157 399.928040,79.648796 400.285126,78.661217 
	C400.464935,78.163971 402.297180,78.264183 403.698364,78.269363 
z"/>
<path fill="#127F8B" opacity="1.000000" stroke="none" 
	d="
M260.591431,243.476181 
	C262.721710,251.710876 261.445465,252.964478 251.750839,251.937958 
	C254.350952,249.151123 257.330750,246.372147 260.591431,243.476181 
z"/>
<path fill="#F1FBFA" opacity="1.000000" stroke="none" 
	d="
M142.973618,421.973999 
	C144.569458,424.342194 145.985382,426.389313 147.544205,428.643036 
	C146.541656,429.564056 145.604950,430.424622 143.736908,432.140808 
	C139.523911,424.996460 135.563095,418.279785 131.391983,411.206451 
	C133.541748,410.327148 134.715225,409.847137 136.014862,409.315552 
	C138.355515,413.575500 140.574600,417.614197 142.973618,421.973999 
z"/>
<path fill="#F1FBFA" opacity="1.000000" stroke="none" 
	d="
M172.759857,452.240631 
	C166.519791,449.145721 160.649002,446.173157 154.240356,442.928284 
	C155.653885,440.955414 156.457169,439.834290 157.074966,438.972046 
	C163.831573,442.523193 170.243576,445.893250 176.972214,449.429718 
	C176.851868,451.519226 176.893311,454.015991 172.759857,452.240631 
z"/>
<path fill="#EFFBFA" opacity="1.000000" stroke="none" 
	d="
M131.987259,378.560303 
	C132.008347,383.452057 131.740158,387.939270 132.227493,392.342926 
	C132.568863,395.427429 131.726669,396.635132 127.819672,396.532288 
	C127.819672,388.730286 127.819672,380.881134 127.819672,373.136414 
	C133.360413,372.132904 132.399826,375.329590 131.987259,378.560303 
z"/>
<path fill="#0F7886" opacity="1.000000" stroke="none" 
	d="
M142.988419,248.983215 
	C142.975357,248.967957 143.194321,248.684036 143.194321,248.684036 
	C143.194321,248.684036 143.206177,248.946564 143.119110,248.985596 
	C143.032028,249.024612 143.001480,248.998489 142.988419,248.983215 
z"/>
<path fill="#FBF8EC" opacity="1.000000" stroke="none" 
	d="
M408.687073,247.586655 
	C403.556244,242.835220 398.641571,237.880035 393.443726,232.723663 
	C394.745789,231.383423 396.330994,230.244370 397.925140,229.098907 
	C402.396637,233.838455 406.657104,238.354324 411.416229,243.398727 
	C410.927643,244.173325 409.915436,245.778107 408.687073,247.586655 
z"/>
<path fill="#F8F8ED" opacity="1.000000" stroke="none" 
	d="
M393.665710,204.489197 
	C388.519318,199.777908 383.579285,194.864853 378.345428,189.761627 
	C379.631287,188.404755 381.210968,187.238068 382.880035,186.005325 
	C387.408813,190.817490 391.708557,195.386276 396.316498,200.282578 
	C395.757019,201.199203 394.814545,202.743332 393.665710,204.489197 
z"/>
<path fill="#F2FBFB" opacity="1.000000" stroke="none" 
	d="
M453.787048,305.862488 
	C451.356720,311.704498 449.042847,317.182983 446.546173,323.094330 
	C444.994720,322.487671 443.720764,321.989502 442.147217,321.374176 
	C444.766754,315.164368 447.255524,309.264526 450.143585,302.418152 
	C451.586243,303.600220 452.744873,304.549591 453.787048,305.862488 
z"/>
<path fill="#127A87" opacity="1.000000" stroke="none" 
	d="
M390.487122,185.504822 
	C390.467133,185.508011 390.507141,185.501633 390.487122,185.504822 
z"/>
<path fill="#0E7987" opacity="1.000000" stroke="none" 
	d="
M319.185791,260.200378 
	C320.943146,262.257507 322.703461,264.203674 323.661163,266.486542 
	C325.366638,270.552002 327.667877,272.557220 332.442505,271.822510 
	C335.755035,271.312775 339.257416,271.975006 342.667297,272.220581 
	C343.244324,272.262115 344.274078,272.863068 344.262878,273.175751 
	C344.141327,276.572266 344.315552,280.097321 343.386200,283.289520 
	C343.009277,284.584229 340.209351,285.674103 338.374481,285.953003 
	C332.063599,286.912231 325.930176,286.194794 319.842621,283.887573 
	C311.933746,280.890076 311.839142,281.139709 307.844208,288.940704 
	C304.970337,287.555023 302.037476,286.200500 299.163666,284.730560 
	C297.696350,283.980042 296.436829,282.624908 294.906647,282.232849 
	C290.278900,281.047211 286.982117,279.252563 287.749481,273.488800 
	C287.878357,272.520691 285.337036,270.233551 283.977173,270.189972 
	C276.182556,269.940247 268.417297,269.900330 261.130493,273.825684 
	C258.745270,275.110565 255.432831,274.674194 252.544434,275.024994 
	C252.388107,274.327759 252.231781,273.630554 252.075455,272.933350 
	C253.558746,272.262177 254.982178,271.332428 256.537476,270.972351 
	C260.047150,270.159882 262.121857,268.268982 263.802765,264.924896 
	C266.731598,259.098206 269.935516,253.100571 277.909698,252.800323 
	C279.111633,252.755066 280.225372,251.347015 281.468567,251.160660 
	C282.894592,250.946884 284.771790,250.892197 285.836609,251.642792 
	C289.311035,254.091919 292.597931,256.835052 295.770477,259.673584 
	C297.590454,261.301941 299.049500,263.333771 300.893829,265.438141 
	C303.163605,262.128479 303.579376,259.656677 299.435486,257.163147 
	C295.972473,255.079285 292.238373,252.617538 293.022400,247.165451 
	C297.674469,251.863342 305.012360,253.254913 307.684479,260.227081 
	C308.692871,262.858337 309.943665,265.461761 311.516541,267.785034 
	C312.348999,269.014771 314.109619,269.616180 315.451233,270.501221 
	C316.041962,268.799622 317.506470,266.789276 317.037567,265.462036 
	C316.122314,262.871704 316.314911,261.344360 319.185791,260.200378 
z"/>
<path fill="#0F7B88" opacity="1.000000" stroke="none" 
	d="
M342.747864,244.090851 
	C346.509735,248.639511 350.026245,253.461014 353.650452,258.583923 
	C352.600800,258.930695 351.349670,259.287445 350.301025,258.971741 
	C342.509979,256.626282 334.790894,255.905701 327.418488,260.231354 
	C325.451935,254.733139 327.255402,247.445847 331.092499,245.364502 
	C332.182678,244.773163 334.566772,245.455902 335.754822,246.352722 
	C340.404968,249.862991 340.828278,249.835388 342.747864,244.090851 
z"/>
<path fill="#0F7886" opacity="1.000000" stroke="none" 
	d="
M355.344971,327.548523 
	C351.829254,319.861633 348.357117,312.559418 345.129120,305.150848 
	C344.015808,302.595734 343.510590,299.775696 342.727600,297.076660 
	C343.494202,296.762634 344.260803,296.448608 345.027374,296.134583 
	C352.913086,308.676086 360.301880,321.480103 365.037781,335.685577 
	C364.628326,336.001404 364.218872,336.317261 363.809418,336.633087 
	C361.034363,333.719238 358.259338,330.805359 355.344971,327.548523 
z"/>
<path fill="#F0FBFA" opacity="1.000000" stroke="none" 
	d="
M322.317474,370.302124 
	C327.603607,369.363098 332.490997,368.542358 337.805908,367.649841 
	C338.004486,369.524719 338.149414,370.893311 338.289764,372.218506 
	C330.815521,373.699341 323.708801,375.107391 316.191772,376.596710 
	C314.285187,374.290619 314.089050,372.355255 318.089447,371.491211 
	C319.382660,371.211884 320.643250,370.781616 322.317474,370.302124 
z"/>
<path fill="#15818C" opacity="1.000000" stroke="none" 
	d="
M375.905701,290.973206 
	C378.429932,293.878296 380.742859,297.063934 383.064209,300.602295 
	C378.903809,299.021362 375.236450,296.706268 375.905701,290.973206 
z"/>
<path fill="#15818C" opacity="1.000000" stroke="none" 
	d="
M383.007416,301.314178 
	C384.311401,302.402161 385.567535,303.866577 386.909607,305.646301 
	C385.650238,304.537933 384.304901,303.114258 383.007416,301.314178 
z"/>
</svg>